<svg width="267" height="52" viewBox="0 0 267 52" fill="none" xmlns="http://www.w3.org/2000/svg">
<path fill-rule="evenodd" clip-rule="evenodd" d="M51.4407 5.18082L46.2599 0L28.9464 17.3135C31.3231 18.2261 33.2146 20.1176 34.1272 22.4944L51.4407 5.18082ZM5.18082 0L22.4944 17.3135C20.1176 18.2261 18.2261 20.1176 17.3135 22.4944L0 5.18082L5.18082 0ZM0 46.2599L17.3135 28.9464C18.2261 31.3231 20.1176 33.2146 22.4944 34.1272L5.18082 51.4407L0 46.2599ZM46.2599 51.4407L28.9464 34.1272C31.3231 33.2146 33.2146 31.3231 34.1272 28.9464L51.4407 46.2599L46.2599 51.4407ZM116.664 40.9091C118.493 41.8392 120.617 42.3043 123.036 42.3043C125.423 42.3043 127.516 41.8547 129.314 40.9556C131.144 40.0564 132.554 38.7852 133.546 37.1419C134.57 35.4986 135.081 33.6072 135.081 31.4679C135.081 31.3438 135.019 31.2353 134.895 31.1423C134.802 31.0493 134.678 31.0028 134.523 31.0028L129.082 30.7702C128.71 30.7702 128.524 30.9408 128.524 31.2818C128.524 32.8941 128.012 34.1964 126.989 35.1885C125.997 36.1807 124.679 36.6768 123.036 36.6768C121.361 36.6768 120.013 36.1807 118.989 35.1885C117.997 34.1964 117.501 32.8941 117.501 31.2818V20.0733C117.501 18.43 117.997 17.1123 118.989 16.1201C120.013 15.1279 121.361 14.6318 123.036 14.6318C124.679 14.6318 125.997 15.1279 126.989 16.1201C128.012 17.1123 128.524 18.43 128.524 20.0733C128.524 20.4144 128.679 20.5849 128.989 20.5849H129.082L134.523 20.2593C134.895 20.1973 135.081 20.0268 135.081 19.7477C135.081 17.6084 134.57 15.7325 133.546 14.1202C132.554 12.4769 131.144 11.2212 129.314 10.353C127.516 9.45388 125.423 9.0043 123.036 9.0043C120.617 9.0043 118.493 9.46938 116.664 10.3996C114.835 11.3297 113.424 12.6475 112.432 14.3528C111.439 16.0581 110.943 18.0269 110.943 20.2593V31.0028C110.943 33.2352 111.439 35.204 112.432 36.9093C113.424 38.6147 114.835 39.9479 116.664 40.9091ZM96.8321 41.4672C96.9251 41.7772 97.1266 41.9323 97.4367 41.9323H103.343C103.684 41.9323 103.855 41.7927 103.855 41.5137C103.855 41.4207 103.839 41.3431 103.808 41.2811L93.7625 9.84145C93.6695 9.53139 93.468 9.37636 93.1579 9.37636H85.8561C85.546 9.37636 85.3445 9.53139 85.2515 9.84145L75.2057 41.2811C75.1437 41.4982 75.1592 41.6687 75.2522 41.7927C75.3452 41.8857 75.4847 41.9323 75.6707 41.9323H81.5773C81.8874 41.9323 82.0889 41.7772 82.1819 41.4672L83.5307 36.9093C83.5927 36.7853 83.6702 36.7233 83.7632 36.7233H95.2043C95.2973 36.7233 95.3748 36.7853 95.4368 36.9093L96.8321 41.4672ZM85.391 31.6539C85.236 31.6539 85.174 31.5609 85.205 31.3748L89.2977 17.5618C89.3287 17.4688 89.3752 17.4223 89.4372 17.4223C89.4993 17.3913 89.5458 17.4378 89.5768 17.5618L93.7625 31.3748C93.8245 31.5609 93.7625 31.6539 93.5765 31.6539H85.391ZM162.4 41.9323C162.09 41.9323 161.873 41.7927 161.749 41.5137L155.936 28.6308C155.874 28.5068 155.781 28.4448 155.656 28.4448H151.331C151.176 28.4448 151.099 28.5223 151.099 28.6774V41.3741C151.099 41.5292 151.037 41.6687 150.913 41.7927C150.82 41.8857 150.696 41.9323 150.541 41.9323H145.099C144.944 41.9323 144.805 41.8857 144.681 41.7927C144.587 41.6687 144.541 41.5292 144.541 41.3741V9.93447C144.541 9.77944 144.587 9.65542 144.681 9.5624C144.805 9.43838 144.944 9.37636 145.099 9.37636H158.4C160.385 9.37636 162.121 9.77944 163.609 10.5856C165.129 11.3917 166.291 12.5389 167.098 14.0272C167.935 15.5155 168.353 17.2363 168.353 19.1896C168.353 21.298 167.826 23.1119 166.772 24.6311C165.718 26.1194 164.245 27.1736 162.354 27.7937C162.199 27.8557 162.152 27.9642 162.214 28.1193L168.539 41.2811C168.601 41.4052 168.632 41.4982 168.632 41.5602C168.632 41.8082 168.462 41.9323 168.121 41.9323H162.4ZM151.331 15.0039C151.176 15.0039 151.099 15.0814 151.099 15.2364V23.1894C151.099 23.3444 151.176 23.4219 151.331 23.4219H157.424C158.726 23.4219 159.78 23.0343 160.586 22.2592C161.424 21.4841 161.842 20.4764 161.842 19.2361C161.842 17.9959 161.424 16.9882 160.586 16.2131C159.78 15.407 158.726 15.0039 157.424 15.0039H151.331ZM182.922 40.9556C184.783 41.9478 186.922 42.4438 189.341 42.4438C191.79 42.4438 193.929 41.9633 195.759 41.0021C197.619 40.0099 199.061 38.6147 200.084 36.8163C201.107 35.018 201.619 32.9561 201.619 30.6307V20.6779C201.619 18.3835 201.107 16.3526 200.084 14.5853C199.061 12.818 197.619 11.4537 195.759 10.4926C193.929 9.50039 191.79 9.0043 189.341 9.0043C186.922 9.0043 184.783 9.50039 182.922 10.4926C181.093 11.4537 179.667 12.818 178.644 14.5853C177.62 16.3526 177.109 18.3835 177.109 20.6779V30.6307C177.109 32.9561 177.62 35.018 178.644 36.8163C179.667 38.5836 181.093 39.9634 182.922 40.9556ZM193.48 35.1885C192.426 36.2737 191.046 36.8163 189.341 36.8163C187.635 36.8163 186.256 36.2737 185.201 35.1885C184.178 34.1033 183.667 32.6616 183.667 30.8633V20.6314C183.667 18.8331 184.178 17.3913 185.201 16.3061C186.256 15.1899 187.635 14.6318 189.341 14.6318C191.077 14.6318 192.457 15.1899 193.48 16.3061C194.534 17.3913 195.061 18.8331 195.061 20.6314V30.8633C195.061 32.6616 194.534 34.1033 193.48 35.1885ZM222.459 42.3043C219.978 42.3043 217.808 41.9167 215.948 41.1416C214.087 40.3355 212.646 39.2038 211.622 37.7465C210.63 36.2582 210.134 34.5374 210.134 32.5841V31.5609C210.134 31.4058 210.181 31.2818 210.274 31.1888C210.398 31.0648 210.537 31.0028 210.692 31.0028H215.994C216.149 31.0028 216.273 31.0648 216.366 31.1888C216.49 31.2818 216.552 31.4058 216.552 31.5609V32.2585C216.552 33.4987 217.126 34.5529 218.273 35.4211C219.42 36.2582 220.971 36.6768 222.924 36.6768C224.567 36.6768 225.792 36.3357 226.598 35.6536C227.404 34.9405 227.807 34.0723 227.807 33.0491C227.807 32.305 227.559 31.6849 227.063 31.1888C226.567 30.6617 225.885 30.2121 225.017 29.8401C224.18 29.437 222.831 28.8944 220.971 28.2123C218.893 27.4991 217.126 26.7705 215.669 26.0264C214.242 25.2822 213.033 24.2746 212.041 23.0033C211.08 21.7011 210.599 20.1043 210.599 18.213C210.599 16.3526 211.08 14.7248 212.041 13.3296C213.002 11.9343 214.335 10.8646 216.041 10.1205C217.746 9.37637 219.715 9.0043 221.947 9.0043C224.304 9.0043 226.397 9.42288 228.226 10.26C230.086 11.0972 231.528 12.2754 232.551 13.7947C233.605 15.2829 234.133 17.0192 234.133 19.0036V19.7012C234.133 19.8563 234.071 19.9958 233.947 20.1198C233.854 20.2128 233.729 20.2593 233.574 20.2593H228.226C228.071 20.2593 227.931 20.2128 227.807 20.1198C227.714 19.9958 227.668 19.8563 227.668 19.7012V19.3292C227.668 18.0269 227.125 16.9262 226.04 16.0271C224.986 15.0969 223.529 14.6318 221.668 14.6318C220.211 14.6318 219.064 14.9419 218.227 15.562C217.421 16.1821 217.017 17.0347 217.017 18.1199C217.017 18.8951 217.25 19.5462 217.715 20.0733C218.211 20.6004 218.924 21.081 219.854 21.5151C220.816 21.9181 222.288 22.4762 224.273 23.1894C226.474 23.9955 228.195 24.7086 229.435 25.3288C230.706 25.9489 231.838 26.879 232.83 28.1193C233.853 29.3285 234.365 30.9098 234.365 32.8631C234.365 35.7776 233.295 38.0876 231.156 39.7929C229.017 41.4672 226.118 42.3043 222.459 42.3043ZM248.258 41.1416C250.119 41.9167 252.289 42.3043 254.77 42.3043C258.428 42.3043 261.327 41.4672 263.467 39.7929C265.606 38.0876 266.676 35.7776 266.676 32.8631C266.676 30.9098 266.164 29.3285 265.141 28.1193C264.149 26.879 263.017 25.9489 261.746 25.3288C260.506 24.7086 258.785 23.9955 256.583 23.1894C254.599 22.4762 253.126 21.9181 252.165 21.5151C251.235 21.081 250.522 20.6004 250.026 20.0733C249.561 19.5462 249.328 18.8951 249.328 18.1199C249.328 17.0347 249.731 16.1821 250.537 15.562C251.374 14.9419 252.522 14.6318 253.979 14.6318C255.839 14.6318 257.297 15.0969 258.351 16.0271C259.436 16.9262 259.978 18.0269 259.978 19.3292V19.7012C259.978 19.8563 260.025 19.9958 260.118 20.1198C260.242 20.2128 260.382 20.2593 260.537 20.2593H265.885C266.04 20.2593 266.164 20.2128 266.257 20.1198C266.381 19.9958 266.443 19.8563 266.443 19.7012V19.0036C266.443 17.0192 265.916 15.2829 264.862 13.7947C263.839 12.2754 262.397 11.0972 260.537 10.26C258.707 9.42288 256.614 9.0043 254.258 9.0043C252.026 9.0043 250.057 9.37637 248.351 10.1205C246.646 10.8646 245.313 11.9343 244.352 13.3296C243.391 14.7248 242.91 16.3526 242.91 18.213C242.91 20.1043 243.391 21.7011 244.352 23.0033C245.344 24.2746 246.553 25.2822 247.979 26.0264C249.437 26.7705 251.204 27.4991 253.281 28.2123C255.142 28.8944 256.49 29.437 257.328 29.8401C258.196 30.2121 258.878 30.6617 259.374 31.1888C259.87 31.6849 260.118 32.305 260.118 33.0491C260.118 34.0723 259.715 34.9405 258.909 35.6536C258.103 36.3357 256.878 36.6768 255.235 36.6768C253.281 36.6768 251.731 36.2582 250.584 35.4211C249.437 34.5529 248.863 33.4987 248.863 32.2585V31.5609C248.863 31.4058 248.801 31.2818 248.677 31.1888C248.584 31.0648 248.46 31.0028 248.305 31.0028H243.003C242.848 31.0028 242.708 31.0648 242.584 31.1888C242.491 31.2818 242.445 31.4058 242.445 31.5609V32.5841C242.445 34.5374 242.941 36.2582 243.933 37.7465C244.956 39.2038 246.398 40.3355 248.258 41.1416Z" fill="url(#paint0_linear_1249_1268)"/>
<defs>
<linearGradient id="paint0_linear_1249_1268" x1="133.338" y1="0" x2="133.338" y2="51.4407" gradientUnits="userSpaceOnUse">
<stop offset="0.234414" stop-color="#6CF9D8"/>
<stop offset="0.386534" stop-color="#B1FFED"/>
<stop offset="0.508728" stop-color="white"/>
<stop offset="0.513716" stop-color="#009A76"/>
<stop offset="0.620948" stop-color="#C1FFF0"/>
<stop offset="0.708229" stop-color="#29997F"/>
<stop offset="0.78803" stop-color="#ADFFEC"/>
</linearGradient>
</defs>
</svg>
