<svg width="344" height="101" viewBox="0 0 344 101" fill="none" xmlns="http://www.w3.org/2000/svg">
<g filter="url(#filter0_dd_2553_36123)">
<path fill-rule="evenodd" clip-rule="evenodd" d="M72.7699 22L78.4558 27.6859L59.4544 46.6874C58.4528 44.079 56.3769 42.0031 53.7684 41.0015L72.7699 22ZM46.6874 41.0015L27.6859 22L22 27.6859L41.0015 46.6874C42.0031 44.079 44.079 42.0031 46.6874 41.0015ZM41.0015 53.7684L22 72.7699L27.6859 78.4558L46.6874 59.4544C44.079 58.4528 42.0031 56.3769 41.0015 53.7684ZM53.7684 59.4544L72.7699 78.4558L78.4558 72.7699L59.4544 53.7684C58.4528 56.3769 56.3769 58.4528 53.7684 59.4544Z" fill="#6CF9D8"/>
<path fill-rule="evenodd" clip-rule="evenodd" d="M72.7699 22L78.4558 27.6859L59.4544 46.6874C58.4528 44.079 56.3769 42.0031 53.7684 41.0015L72.7699 22ZM46.6874 41.0015L27.6859 22L22 27.6859L41.0015 46.6874C42.0031 44.079 44.079 42.0031 46.6874 41.0015ZM41.0015 53.7684L22 72.7699L27.6859 78.4558L46.6874 59.4544C44.079 58.4528 42.0031 56.3769 41.0015 53.7684ZM53.7684 59.4544L72.7699 78.4558L78.4558 72.7699L59.4544 53.7684C58.4528 56.3769 56.3769 58.4528 53.7684 59.4544Z" fill="url(#paint0_linear_2553_36123)"/>
<path d="M130.163 68.5751C129.813 68.5751 129.586 68.4001 129.481 68.0501L127.748 62.4333C127.678 62.2933 127.591 62.2233 127.486 62.2233H113.627C113.522 62.2233 113.435 62.2933 113.365 62.4333L111.633 68.0501C111.528 68.4001 111.3 68.5751 110.95 68.5751H105.701C105.491 68.5751 105.333 68.5226 105.228 68.4176C105.123 68.2776 105.106 68.0851 105.176 67.8402L116.567 32.3542C116.672 32.0042 116.9 31.8293 117.25 31.8293H123.811C124.161 31.8293 124.389 32.0042 124.494 32.3542L135.937 67.8402C135.972 67.9101 135.99 67.9976 135.99 68.1026C135.99 68.4176 135.797 68.5751 135.412 68.5751H130.163ZM114.992 57.1314C114.957 57.3413 115.027 57.4463 115.202 57.4463H125.859C126.069 57.4463 126.139 57.3413 126.069 57.1314L120.662 39.5459C120.627 39.4059 120.574 39.3359 120.504 39.3359C120.434 39.3359 120.382 39.4059 120.347 39.5459L114.992 57.1314Z" fill="#6CF9D8"/>
<path d="M130.163 68.5751C129.813 68.5751 129.586 68.4001 129.481 68.0501L127.748 62.4333C127.678 62.2933 127.591 62.2233 127.486 62.2233H113.627C113.522 62.2233 113.435 62.2933 113.365 62.4333L111.633 68.0501C111.528 68.4001 111.3 68.5751 110.95 68.5751H105.701C105.491 68.5751 105.333 68.5226 105.228 68.4176C105.123 68.2776 105.106 68.0851 105.176 67.8402L116.567 32.3542C116.672 32.0042 116.9 31.8293 117.25 31.8293H123.811C124.161 31.8293 124.389 32.0042 124.494 32.3542L135.937 67.8402C135.972 67.9101 135.99 67.9976 135.99 68.1026C135.99 68.4176 135.797 68.5751 135.412 68.5751H130.163ZM114.992 57.1314C114.957 57.3413 115.027 57.4463 115.202 57.4463H125.859C126.069 57.4463 126.139 57.3413 126.069 57.1314L120.662 39.5459C120.627 39.4059 120.574 39.3359 120.504 39.3359C120.434 39.3359 120.382 39.4059 120.347 39.5459L114.992 57.1314Z" fill="url(#paint1_linear_2553_36123)"/>
<path d="M158.555 68.995C155.93 68.995 153.621 68.4876 151.626 67.4727C149.631 66.4228 148.091 64.9705 147.006 63.1157C145.921 61.2609 145.379 59.1086 145.379 56.6589V43.6929C145.379 41.2432 145.921 39.0909 147.006 37.2361C148.091 35.3813 149.631 33.9465 151.626 32.9316C153.621 31.9167 155.93 31.4093 158.555 31.4093C161.145 31.4093 163.437 31.8992 165.432 32.8791C167.426 33.859 168.966 35.2414 170.051 37.0262C171.136 38.811 171.678 40.8757 171.678 43.2205C171.678 43.3954 171.608 43.5529 171.468 43.6929C171.363 43.7979 171.224 43.8504 171.049 43.8504L166.219 44.1129C165.799 44.1129 165.589 43.9204 165.589 43.5354C165.589 41.4707 164.942 39.8083 163.647 38.5485C162.387 37.2886 160.69 36.6587 158.555 36.6587C156.42 36.6587 154.705 37.2886 153.411 38.5485C152.116 39.8083 151.468 41.4707 151.468 43.5354V56.9214C151.468 58.9512 152.116 60.596 153.411 61.8558C154.705 63.1157 156.42 63.7456 158.555 63.7456C160.69 63.7456 162.387 63.1332 163.647 61.9083C164.942 60.6485 165.589 58.9862 165.589 56.9214C165.589 56.5364 165.799 56.344 166.219 56.344L171.049 56.5539C171.224 56.5539 171.363 56.6064 171.468 56.7114C171.608 56.8164 171.678 56.9389 171.678 57.0789C171.678 59.4586 171.136 61.5584 170.051 63.3782C168.966 65.163 167.426 66.5453 165.432 67.5252C163.437 68.5051 161.145 68.995 158.555 68.995Z" fill="#6CF9D8"/>
<path d="M158.555 68.995C155.93 68.995 153.621 68.4876 151.626 67.4727C149.631 66.4228 148.091 64.9705 147.006 63.1157C145.921 61.2609 145.379 59.1086 145.379 56.6589V43.6929C145.379 41.2432 145.921 39.0909 147.006 37.2361C148.091 35.3813 149.631 33.9465 151.626 32.9316C153.621 31.9167 155.93 31.4093 158.555 31.4093C161.145 31.4093 163.437 31.8992 165.432 32.8791C167.426 33.859 168.966 35.2414 170.051 37.0262C171.136 38.811 171.678 40.8757 171.678 43.2205C171.678 43.3954 171.608 43.5529 171.468 43.6929C171.363 43.7979 171.224 43.8504 171.049 43.8504L166.219 44.1129C165.799 44.1129 165.589 43.9204 165.589 43.5354C165.589 41.4707 164.942 39.8083 163.647 38.5485C162.387 37.2886 160.69 36.6587 158.555 36.6587C156.42 36.6587 154.705 37.2886 153.411 38.5485C152.116 39.8083 151.468 41.4707 151.468 43.5354V56.9214C151.468 58.9512 152.116 60.596 153.411 61.8558C154.705 63.1157 156.42 63.7456 158.555 63.7456C160.69 63.7456 162.387 63.1332 163.647 61.9083C164.942 60.6485 165.589 58.9862 165.589 56.9214C165.589 56.5364 165.799 56.344 166.219 56.344L171.049 56.5539C171.224 56.5539 171.363 56.6064 171.468 56.7114C171.608 56.8164 171.678 56.9389 171.678 57.0789C171.678 59.4586 171.136 61.5584 170.051 63.3782C168.966 65.163 167.426 66.5453 165.432 67.5252C163.437 68.5051 161.145 68.995 158.555 68.995Z" fill="url(#paint2_linear_2553_36123)"/>
<path d="M204.613 68.5751C204.263 68.5751 204.018 68.4176 203.878 68.1026L196.949 52.9843C196.879 52.8444 196.774 52.7744 196.634 52.7744H190.335C190.16 52.7744 190.072 52.8619 190.072 53.0368V67.9451C190.072 68.1201 190.002 68.2776 189.862 68.4176C189.757 68.5226 189.617 68.5751 189.442 68.5751H184.613C184.438 68.5751 184.28 68.5226 184.14 68.4176C184.035 68.2776 183.983 68.1201 183.983 67.9451V32.4592C183.983 32.2842 184.035 32.1442 184.14 32.0392C184.28 31.8992 184.438 31.8293 184.613 31.8293H199.049C201.184 31.8293 203.073 32.2842 204.718 33.1941C206.363 34.069 207.64 35.3289 208.55 36.9737C209.46 38.5835 209.915 40.4383 209.915 42.538C209.915 44.9528 209.285 47.0175 208.025 48.7323C206.8 50.4121 205.086 51.5845 202.881 52.2494C202.811 52.2494 202.758 52.2844 202.723 52.3544C202.688 52.4244 202.688 52.4944 202.723 52.5644L210.125 67.8402C210.195 67.9801 210.23 68.0851 210.23 68.1551C210.23 68.4351 210.038 68.5751 209.653 68.5751H204.613ZM190.335 37.0787C190.16 37.0787 190.072 37.1661 190.072 37.3411V47.7874C190.072 47.9624 190.16 48.0499 190.335 48.0499H198.209C199.889 48.0499 201.236 47.56 202.251 46.5801C203.301 45.5652 203.826 44.2353 203.826 42.5905C203.826 40.9457 203.301 39.6159 202.251 38.601C201.236 37.5861 199.889 37.0787 198.209 37.0787H190.335Z" fill="#6CF9D8"/>
<path d="M204.613 68.5751C204.263 68.5751 204.018 68.4176 203.878 68.1026L196.949 52.9843C196.879 52.8444 196.774 52.7744 196.634 52.7744H190.335C190.16 52.7744 190.072 52.8619 190.072 53.0368V67.9451C190.072 68.1201 190.002 68.2776 189.862 68.4176C189.757 68.5226 189.617 68.5751 189.442 68.5751H184.613C184.438 68.5751 184.28 68.5226 184.14 68.4176C184.035 68.2776 183.983 68.1201 183.983 67.9451V32.4592C183.983 32.2842 184.035 32.1442 184.14 32.0392C184.28 31.8992 184.438 31.8293 184.613 31.8293H199.049C201.184 31.8293 203.073 32.2842 204.718 33.1941C206.363 34.069 207.64 35.3289 208.55 36.9737C209.46 38.5835 209.915 40.4383 209.915 42.538C209.915 44.9528 209.285 47.0175 208.025 48.7323C206.8 50.4121 205.086 51.5845 202.881 52.2494C202.811 52.2494 202.758 52.2844 202.723 52.3544C202.688 52.4244 202.688 52.4944 202.723 52.5644L210.125 67.8402C210.195 67.9801 210.23 68.0851 210.23 68.1551C210.23 68.4351 210.038 68.5751 209.653 68.5751H204.613ZM190.335 37.0787C190.16 37.0787 190.072 37.1661 190.072 37.3411V47.7874C190.072 47.9624 190.16 48.0499 190.335 48.0499H198.209C199.889 48.0499 201.236 47.56 202.251 46.5801C203.301 45.5652 203.826 44.2353 203.826 42.5905C203.826 40.9457 203.301 39.6159 202.251 38.601C201.236 37.5861 199.889 37.0787 198.209 37.0787H190.335Z" fill="url(#paint3_linear_2553_36123)"/>
<path d="M234.392 69.1C231.767 69.1 229.44 68.5751 227.41 67.5252C225.381 66.4403 223.806 64.918 222.686 62.9582C221.601 60.9984 221.059 58.7412 221.059 56.1865V44.2178C221.059 41.6981 221.618 39.4759 222.738 37.5511C223.858 35.5913 225.416 34.0865 227.41 33.0366C229.44 31.9517 231.767 31.4093 234.392 31.4093C237.052 31.4093 239.379 31.9517 241.374 33.0366C243.403 34.0865 244.978 35.5913 246.098 37.5511C247.218 39.4759 247.778 41.6981 247.778 44.2178V56.1865C247.778 58.7412 247.218 60.9984 246.098 62.9582C244.978 64.918 243.403 66.4403 241.374 67.5252C239.379 68.5751 237.052 69.1 234.392 69.1ZM234.392 63.8506C236.597 63.8506 238.364 63.1682 239.694 61.8033C241.024 60.4385 241.689 58.6362 241.689 56.3965V44.1653C241.689 41.8906 241.024 40.0708 239.694 38.706C238.364 37.3411 236.597 36.6587 234.392 36.6587C232.222 36.6587 230.472 37.3411 229.143 38.706C227.813 40.0708 227.148 41.8906 227.148 44.1653V56.3965C227.148 58.6362 227.813 60.4385 229.143 61.8033C230.472 63.1682 232.222 63.8506 234.392 63.8506Z" fill="#6CF9D8"/>
<path d="M234.392 69.1C231.767 69.1 229.44 68.5751 227.41 67.5252C225.381 66.4403 223.806 64.918 222.686 62.9582C221.601 60.9984 221.059 58.7412 221.059 56.1865V44.2178C221.059 41.6981 221.618 39.4759 222.738 37.5511C223.858 35.5913 225.416 34.0865 227.41 33.0366C229.44 31.9517 231.767 31.4093 234.392 31.4093C237.052 31.4093 239.379 31.9517 241.374 33.0366C243.403 34.0865 244.978 35.5913 246.098 37.5511C247.218 39.4759 247.778 41.6981 247.778 44.2178V56.1865C247.778 58.7412 247.218 60.9984 246.098 62.9582C244.978 64.918 243.403 66.4403 241.374 67.5252C239.379 68.5751 237.052 69.1 234.392 69.1ZM234.392 63.8506C236.597 63.8506 238.364 63.1682 239.694 61.8033C241.024 60.4385 241.689 58.6362 241.689 56.3965V44.1653C241.689 41.8906 241.024 40.0708 239.694 38.706C238.364 37.3411 236.597 36.6587 234.392 36.6587C232.222 36.6587 230.472 37.3411 229.143 38.706C227.813 40.0708 227.148 41.8906 227.148 44.1653V56.3965C227.148 58.6362 227.813 60.4385 229.143 61.8033C230.472 63.1682 232.222 63.8506 234.392 63.8506Z" fill="url(#paint4_linear_2553_36123)"/>
<path d="M272.193 68.995C269.463 68.995 267.083 68.5576 265.053 67.6827C263.024 66.8078 261.449 65.5829 260.329 64.0081C259.244 62.4333 258.702 60.5785 258.702 58.4437V57.1314C258.702 56.9564 258.754 56.8164 258.859 56.7114C258.999 56.5714 259.157 56.5014 259.332 56.5014H264.004C264.179 56.5014 264.319 56.5714 264.423 56.7114C264.563 56.8164 264.633 56.9564 264.633 57.1314V58.1288C264.633 59.7386 265.351 61.0859 266.786 62.1708C268.221 63.2207 270.18 63.7456 272.665 63.7456C274.8 63.7456 276.41 63.2907 277.495 62.3808C278.579 61.4709 279.122 60.2985 279.122 58.8637C279.122 57.8838 278.824 57.0614 278.229 56.3965C277.634 55.6965 276.777 55.0666 275.657 54.5067C274.572 53.9467 272.928 53.2468 270.723 52.4069C268.238 51.497 266.226 50.6396 264.686 49.8347C263.146 49.0298 261.851 47.9449 260.801 46.5801C259.787 45.1802 259.279 43.4479 259.279 41.3832C259.279 38.3035 260.399 35.8713 262.639 34.0865C264.878 32.3017 267.871 31.4093 271.615 31.4093C274.24 31.4093 276.55 31.8642 278.544 32.7741C280.574 33.684 282.149 34.9614 283.269 36.6062C284.389 38.216 284.949 40.0883 284.949 42.2231V43.1155C284.949 43.2904 284.879 43.4479 284.739 43.5879C284.634 43.6929 284.494 43.7454 284.319 43.7454H279.594C279.419 43.7454 279.262 43.6929 279.122 43.5879C279.017 43.4479 278.964 43.2904 278.964 43.1155V42.538C278.964 40.8932 278.282 39.5109 276.917 38.391C275.587 37.2361 273.732 36.6587 271.353 36.6587C269.428 36.6587 267.923 37.0612 266.838 37.8661C265.788 38.671 265.263 39.8083 265.263 41.2782C265.263 42.3281 265.543 43.1855 266.103 43.8504C266.663 44.5153 267.503 45.1277 268.623 45.6877C269.743 46.2126 271.475 46.895 273.82 47.7349C276.305 48.6798 278.282 49.5372 279.752 50.3071C281.257 51.0771 282.534 52.1619 283.584 53.5618C284.669 54.9266 285.211 56.6414 285.211 58.7062C285.211 61.8558 284.039 64.358 281.694 66.2128C279.384 68.0676 276.217 68.995 272.193 68.995Z" fill="#6CF9D8"/>
<path d="M272.193 68.995C269.463 68.995 267.083 68.5576 265.053 67.6827C263.024 66.8078 261.449 65.5829 260.329 64.0081C259.244 62.4333 258.702 60.5785 258.702 58.4437V57.1314C258.702 56.9564 258.754 56.8164 258.859 56.7114C258.999 56.5714 259.157 56.5014 259.332 56.5014H264.004C264.179 56.5014 264.319 56.5714 264.423 56.7114C264.563 56.8164 264.633 56.9564 264.633 57.1314V58.1288C264.633 59.7386 265.351 61.0859 266.786 62.1708C268.221 63.2207 270.18 63.7456 272.665 63.7456C274.8 63.7456 276.41 63.2907 277.495 62.3808C278.579 61.4709 279.122 60.2985 279.122 58.8637C279.122 57.8838 278.824 57.0614 278.229 56.3965C277.634 55.6965 276.777 55.0666 275.657 54.5067C274.572 53.9467 272.928 53.2468 270.723 52.4069C268.238 51.497 266.226 50.6396 264.686 49.8347C263.146 49.0298 261.851 47.9449 260.801 46.5801C259.787 45.1802 259.279 43.4479 259.279 41.3832C259.279 38.3035 260.399 35.8713 262.639 34.0865C264.878 32.3017 267.871 31.4093 271.615 31.4093C274.24 31.4093 276.55 31.8642 278.544 32.7741C280.574 33.684 282.149 34.9614 283.269 36.6062C284.389 38.216 284.949 40.0883 284.949 42.2231V43.1155C284.949 43.2904 284.879 43.4479 284.739 43.5879C284.634 43.6929 284.494 43.7454 284.319 43.7454H279.594C279.419 43.7454 279.262 43.6929 279.122 43.5879C279.017 43.4479 278.964 43.2904 278.964 43.1155V42.538C278.964 40.8932 278.282 39.5109 276.917 38.391C275.587 37.2361 273.732 36.6587 271.353 36.6587C269.428 36.6587 267.923 37.0612 266.838 37.8661C265.788 38.671 265.263 39.8083 265.263 41.2782C265.263 42.3281 265.543 43.1855 266.103 43.8504C266.663 44.5153 267.503 45.1277 268.623 45.6877C269.743 46.2126 271.475 46.895 273.82 47.7349C276.305 48.6798 278.282 49.5372 279.752 50.3071C281.257 51.0771 282.534 52.1619 283.584 53.5618C284.669 54.9266 285.211 56.6414 285.211 58.7062C285.211 61.8558 284.039 64.358 281.694 66.2128C279.384 68.0676 276.217 68.995 272.193 68.995Z" fill="url(#paint5_linear_2553_36123)"/>
<path d="M308.981 68.995C306.252 68.995 303.872 68.5576 301.842 67.6827C299.813 66.8078 298.238 65.5829 297.118 64.0081C296.033 62.4333 295.491 60.5785 295.491 58.4437V57.1314C295.491 56.9564 295.543 56.8164 295.648 56.7114C295.788 56.5714 295.945 56.5014 296.12 56.5014H300.792C300.967 56.5014 301.107 56.5714 301.212 56.7114C301.352 56.8164 301.422 56.9564 301.422 57.1314V58.1288C301.422 59.7386 302.14 61.0859 303.575 62.1708C305.009 63.2207 306.969 63.7456 309.454 63.7456C311.589 63.7456 313.198 63.2907 314.283 62.3808C315.368 61.4709 315.911 60.2985 315.911 58.8637C315.911 57.8838 315.613 57.0614 315.018 56.3965C314.423 55.6965 313.566 55.0666 312.446 54.5067C311.361 53.9467 309.716 53.2468 307.512 52.4069C305.027 51.497 303.015 50.6396 301.475 49.8347C299.935 49.0298 298.64 47.9449 297.59 46.5801C296.575 45.1802 296.068 43.4479 296.068 41.3832C296.068 38.3035 297.188 35.8713 299.428 34.0865C301.667 32.3017 304.659 31.4093 308.404 31.4093C311.029 31.4093 313.338 31.8642 315.333 32.7741C317.363 33.684 318.938 34.9614 320.058 36.6062C321.178 38.216 321.738 40.0883 321.738 42.2231V43.1155C321.738 43.2904 321.668 43.4479 321.528 43.5879C321.423 43.6929 321.283 43.7454 321.108 43.7454H316.383C316.208 43.7454 316.051 43.6929 315.911 43.5879C315.806 43.4479 315.753 43.2904 315.753 43.1155V42.538C315.753 40.8932 315.071 39.5109 313.706 38.391C312.376 37.2361 310.521 36.6587 308.142 36.6587C306.217 36.6587 304.712 37.0612 303.627 37.8661C302.577 38.671 302.052 39.8083 302.052 41.2782C302.052 42.3281 302.332 43.1855 302.892 43.8504C303.452 44.5153 304.292 45.1277 305.412 45.6877C306.532 46.2126 308.264 46.895 310.609 47.7349C313.094 48.6798 315.071 49.5372 316.541 50.3071C318.045 51.0771 319.323 52.1619 320.373 53.5618C321.458 54.9266 322 56.6414 322 58.7062C322 61.8558 320.828 64.358 318.483 66.2128C316.173 68.0676 313.006 68.995 308.981 68.995Z" fill="#6CF9D8"/>
<path d="M308.981 68.995C306.252 68.995 303.872 68.5576 301.842 67.6827C299.813 66.8078 298.238 65.5829 297.118 64.0081C296.033 62.4333 295.491 60.5785 295.491 58.4437V57.1314C295.491 56.9564 295.543 56.8164 295.648 56.7114C295.788 56.5714 295.945 56.5014 296.12 56.5014H300.792C300.967 56.5014 301.107 56.5714 301.212 56.7114C301.352 56.8164 301.422 56.9564 301.422 57.1314V58.1288C301.422 59.7386 302.14 61.0859 303.575 62.1708C305.009 63.2207 306.969 63.7456 309.454 63.7456C311.589 63.7456 313.198 63.2907 314.283 62.3808C315.368 61.4709 315.911 60.2985 315.911 58.8637C315.911 57.8838 315.613 57.0614 315.018 56.3965C314.423 55.6965 313.566 55.0666 312.446 54.5067C311.361 53.9467 309.716 53.2468 307.512 52.4069C305.027 51.497 303.015 50.6396 301.475 49.8347C299.935 49.0298 298.64 47.9449 297.59 46.5801C296.575 45.1802 296.068 43.4479 296.068 41.3832C296.068 38.3035 297.188 35.8713 299.428 34.0865C301.667 32.3017 304.659 31.4093 308.404 31.4093C311.029 31.4093 313.338 31.8642 315.333 32.7741C317.363 33.684 318.938 34.9614 320.058 36.6062C321.178 38.216 321.738 40.0883 321.738 42.2231V43.1155C321.738 43.2904 321.668 43.4479 321.528 43.5879C321.423 43.6929 321.283 43.7454 321.108 43.7454H316.383C316.208 43.7454 316.051 43.6929 315.911 43.5879C315.806 43.4479 315.753 43.2904 315.753 43.1155V42.538C315.753 40.8932 315.071 39.5109 313.706 38.391C312.376 37.2361 310.521 36.6587 308.142 36.6587C306.217 36.6587 304.712 37.0612 303.627 37.8661C302.577 38.671 302.052 39.8083 302.052 41.2782C302.052 42.3281 302.332 43.1855 302.892 43.8504C303.452 44.5153 304.292 45.1277 305.412 45.6877C306.532 46.2126 308.264 46.895 310.609 47.7349C313.094 48.6798 315.071 49.5372 316.541 50.3071C318.045 51.0771 319.323 52.1619 320.373 53.5618C321.458 54.9266 322 56.6414 322 58.7062C322 61.8558 320.828 64.358 318.483 66.2128C316.173 68.0676 313.006 68.995 308.981 68.995Z" fill="url(#paint6_linear_2553_36123)"/>
</g>
<defs>
<filter id="filter0_dd_2553_36123" x="0" y="0" width="344" height="100.456" filterUnits="userSpaceOnUse" color-interpolation-filters="sRGB">
<feFlood flood-opacity="0" result="BackgroundImageFix"/>
<feColorMatrix in="SourceAlpha" type="matrix" values="0 0 0 0 0 0 0 0 0 0 0 0 0 0 0 0 0 0 127 0" result="hardAlpha"/>
<feOffset dy="3"/>
<feGaussianBlur stdDeviation="3.5"/>
<feComposite in2="hardAlpha" operator="out"/>
<feColorMatrix type="matrix" values="0 0 0 0 0 0 0 0 0 0 0 0 0 0 0 0 0 0 0.35 0"/>
<feBlend mode="normal" in2="BackgroundImageFix" result="effect1_dropShadow_2553_36123"/>
<feColorMatrix in="SourceAlpha" type="matrix" values="0 0 0 0 0 0 0 0 0 0 0 0 0 0 0 0 0 0 127 0" result="hardAlpha"/>
<feOffset/>
<feGaussianBlur stdDeviation="11"/>
<feComposite in2="hardAlpha" operator="out"/>
<feColorMatrix type="matrix" values="0 0 0 0 0.427451 0 0 0 0 0.980392 0 0 0 0 0.85098 0 0 0 1 0"/>
<feBlend mode="normal" in2="effect1_dropShadow_2553_36123" result="effect2_dropShadow_2553_36123"/>
<feBlend mode="normal" in="SourceGraphic" in2="effect2_dropShadow_2553_36123" result="shape"/>
</filter>
<linearGradient id="paint0_linear_2553_36123" x1="50.2279" y1="22" x2="50.2279" y2="78.4558" gradientUnits="userSpaceOnUse">
<stop offset="0.234414" stop-color="#6CF9D8"/>
<stop offset="0.386534" stop-color="#B1FFED"/>
<stop offset="0.508728" stop-color="white"/>
<stop offset="0.513716" stop-color="#009A76"/>
<stop offset="0.620948" stop-color="#C1FFF0"/>
<stop offset="0.708229" stop-color="#29997F"/>
<stop offset="0.78803" stop-color="#ADFFEC"/>
</linearGradient>
<linearGradient id="paint1_linear_2553_36123" x1="213.567" y1="31.4093" x2="213.567" y2="69.1" gradientUnits="userSpaceOnUse">
<stop offset="0.234414" stop-color="#6CF9D8"/>
<stop offset="0.386534" stop-color="#B1FFED"/>
<stop offset="0.508728" stop-color="white"/>
<stop offset="0.513716" stop-color="#009A76"/>
<stop offset="0.620948" stop-color="#C1FFF0"/>
<stop offset="0.708229" stop-color="#29997F"/>
<stop offset="0.78803" stop-color="#ADFFEC"/>
</linearGradient>
<linearGradient id="paint2_linear_2553_36123" x1="213.567" y1="31.4093" x2="213.567" y2="69.1" gradientUnits="userSpaceOnUse">
<stop offset="0.234414" stop-color="#6CF9D8"/>
<stop offset="0.386534" stop-color="#B1FFED"/>
<stop offset="0.508728" stop-color="white"/>
<stop offset="0.513716" stop-color="#009A76"/>
<stop offset="0.620948" stop-color="#C1FFF0"/>
<stop offset="0.708229" stop-color="#29997F"/>
<stop offset="0.78803" stop-color="#ADFFEC"/>
</linearGradient>
<linearGradient id="paint3_linear_2553_36123" x1="213.567" y1="31.4093" x2="213.567" y2="69.1" gradientUnits="userSpaceOnUse">
<stop offset="0.234414" stop-color="#6CF9D8"/>
<stop offset="0.386534" stop-color="#B1FFED"/>
<stop offset="0.508728" stop-color="white"/>
<stop offset="0.513716" stop-color="#009A76"/>
<stop offset="0.620948" stop-color="#C1FFF0"/>
<stop offset="0.708229" stop-color="#29997F"/>
<stop offset="0.78803" stop-color="#ADFFEC"/>
</linearGradient>
<linearGradient id="paint4_linear_2553_36123" x1="213.567" y1="31.4093" x2="213.567" y2="69.1" gradientUnits="userSpaceOnUse">
<stop offset="0.234414" stop-color="#6CF9D8"/>
<stop offset="0.386534" stop-color="#B1FFED"/>
<stop offset="0.508728" stop-color="white"/>
<stop offset="0.513716" stop-color="#009A76"/>
<stop offset="0.620948" stop-color="#C1FFF0"/>
<stop offset="0.708229" stop-color="#29997F"/>
<stop offset="0.78803" stop-color="#ADFFEC"/>
</linearGradient>
<linearGradient id="paint5_linear_2553_36123" x1="213.567" y1="31.4093" x2="213.567" y2="69.1" gradientUnits="userSpaceOnUse">
<stop offset="0.234414" stop-color="#6CF9D8"/>
<stop offset="0.386534" stop-color="#B1FFED"/>
<stop offset="0.508728" stop-color="white"/>
<stop offset="0.513716" stop-color="#009A76"/>
<stop offset="0.620948" stop-color="#C1FFF0"/>
<stop offset="0.708229" stop-color="#29997F"/>
<stop offset="0.78803" stop-color="#ADFFEC"/>
</linearGradient>
<linearGradient id="paint6_linear_2553_36123" x1="213.567" y1="31.4093" x2="213.567" y2="69.1" gradientUnits="userSpaceOnUse">
<stop offset="0.234414" stop-color="#6CF9D8"/>
<stop offset="0.386534" stop-color="#B1FFED"/>
<stop offset="0.508728" stop-color="white"/>
<stop offset="0.513716" stop-color="#009A76"/>
<stop offset="0.620948" stop-color="#C1FFF0"/>
<stop offset="0.708229" stop-color="#29997F"/>
<stop offset="0.78803" stop-color="#ADFFEC"/>
</linearGradient>
</defs>
</svg>
