<svg width="52" height="52" viewBox="0 0 52 52" fill="none" xmlns="http://www.w3.org/2000/svg">
<path fill-rule="evenodd" clip-rule="evenodd" d="M46.2599 0L51.4407 5.18082L34.1272 22.4944C33.2146 20.1176 31.3231 18.2261 28.9464 17.3135L46.2599 0ZM22.4944 17.3135L5.18082 0L0 5.18082L17.3135 22.4944C18.2261 20.1176 20.1176 18.2261 22.4944 17.3135ZM17.3135 28.9464L0 46.2599L5.18082 51.4407L22.4944 34.1272C20.1176 33.2146 18.2261 31.3231 17.3135 28.9464ZM28.9464 34.1272L46.2599 51.4407L51.4407 46.2599L34.1272 28.9464C33.2146 31.3231 31.3231 33.2146 28.9464 34.1272Z" fill="url(#paint0_linear_1249_1268)"/>
<defs>
<linearGradient id="paint0_linear_1249_1268" x1="25.7204" y1="0" x2="25.7204" y2="51.4407" gradientUnits="userSpaceOnUse">
<stop offset="0.234414" stop-color="#6CF9D8"/>
<stop offset="0.386534" stop-color="#B1FFED"/>
<stop offset="0.508728" stop-color="white"/>
<stop offset="0.513716" stop-color="#009A76"/>
<stop offset="0.620948" stop-color="#C1FFF0"/>
<stop offset="0.708229" stop-color="#29997F"/>
<stop offset="0.78803" stop-color="#ADFFEC"/>
</linearGradient>
</defs>
</svg>
