<svg width="410" height="410" viewBox="0 0 410 410" fill="none" xmlns="http://www.w3.org/2000/svg">
<path d="M238.007 71.3333C238.007 52.9238 223.083 38 204.673 38C186.264 38 171.34 52.9238 171.34 71.3333V171.359H71.3333C52.9238 171.359 38 186.283 38 204.693C38 223.102 52.9238 238.026 71.3333 238.026H171.34V338.019C171.34 356.429 186.264 371.352 204.673 371.352C223.083 371.352 238.007 356.429 238.007 338.019V238.026H338.019C356.429 238.026 371.352 223.102 371.352 204.693C371.352 186.283 356.429 171.359 338.019 171.359H238.007V71.3333Z" fill="url(#paint0_linear_1332_407)"/>
<path d="M238.007 71.3333C238.007 52.9238 223.083 38 204.673 38C186.264 38 171.34 52.9238 171.34 71.3333V171.359H71.3333C52.9238 171.359 38 186.283 38 204.693C38 223.102 52.9238 238.026 71.3333 238.026H171.34V338.019C171.34 356.429 186.264 371.352 204.673 371.352C223.083 371.352 238.007 356.429 238.007 338.019V238.026H338.019C356.429 238.026 371.352 223.102 371.352 204.693C371.352 186.283 356.429 171.359 338.019 171.359H238.007V71.3333Z" fill="url(#paint1_linear_1332_407)"/>
<defs>
<linearGradient id="paint0_linear_1332_407" x1="204.676" y1="38" x2="204.676" y2="369.749" gradientUnits="userSpaceOnUse">
<stop offset="0.234414" stop-color="#6CF9D8"/>
<stop offset="0.386534" stop-color="#B1FFED"/>
<stop offset="0.508728" stop-color="white"/>
<stop offset="0.513716" stop-color="#009A76"/>
<stop offset="0.620948" stop-color="#C1FFF0"/>
<stop offset="0.708229" stop-color="#29997F"/>
<stop offset="0.78803" stop-color="#ADFFEC"/>
</linearGradient>
<linearGradient id="paint1_linear_1332_407" x1="204.676" y1="38" x2="204.676" y2="371.352" gradientUnits="userSpaceOnUse">
<stop offset="0.234414" stop-color="#6CD3F9"/>
<stop offset="0.386534" stop-color="#B1EAFF"/>
<stop offset="0.508728" stop-color="white"/>
<stop offset="0.513716" stop-color="#00719A"/>
<stop offset="0.620948" stop-color="#C1EEFF"/>
<stop offset="0.708229" stop-color="#297B99"/>
<stop offset="0.78803" stop-color="#ADE9FF"/>
</linearGradient>
</defs>
</svg>
