<svg width="264" height="15" viewBox="0 0 264 15" fill="none" xmlns="http://www.w3.org/2000/svg">
<path d="M5.664 0.144001C6.88 0.144001 7.864 0.512001 8.616 1.248C9.384 1.968 9.768 2.92 9.768 4.104C9.768 5.272 9.384 6.216 8.616 6.936C7.848 7.656 6.84 8.016 5.592 8.016H1.8C1.736 8.016 1.704 8.048 1.704 8.112V13.776C1.704 13.936 1.624 14.016 1.464 14.016H0.24C0.08 14.016 0 13.936 0 13.776V0.384001C0 0.224001 0.08 0.144001 0.24 0.144001H5.664ZM5.544 6.624C6.296 6.624 6.904 6.4 7.368 5.952C7.848 5.488 8.088 4.888 8.088 4.152C8.088 3.4 7.848 2.792 7.368 2.328C6.904 1.864 6.296 1.632 5.544 1.632H1.8C1.736 1.632 1.704 1.664 1.704 1.728V6.528C1.704 6.592 1.736 6.624 1.8 6.624H5.544Z" fill="#A7A7A9"/>
<path d="M19.5801 14.184C18.0441 14.184 16.8121 13.728 15.8841 12.816C14.9721 11.904 14.5161 10.68 14.5161 9.144V5.064C14.5161 3.528 14.9721 2.304 15.8841 1.392C16.8121 0.464 18.0441 0 19.5801 0C20.5881 0 21.4681 0.208 22.2201 0.624001C22.9881 1.04 23.5801 1.632 23.9961 2.4C24.4281 3.152 24.6441 4.04 24.6441 5.064V9.144C24.6441 10.68 24.1801 11.904 23.2521 12.816C22.3241 13.728 21.1001 14.184 19.5801 14.184ZM19.5801 12.72C20.5881 12.72 21.3961 12.408 22.0041 11.784C22.6281 11.144 22.9401 10.28 22.9401 9.192V5.04C22.9401 3.952 22.6281 3.096 22.0041 2.472C21.3961 1.832 20.5881 1.512 19.5801 1.512C18.5561 1.512 17.7401 1.832 17.1321 2.472C16.5241 3.096 16.2201 3.952 16.2201 5.04V9.192C16.2201 10.28 16.5241 11.144 17.1321 11.784C17.7401 12.408 18.5561 12.72 19.5801 12.72Z" fill="#A7A7A9"/>
<path d="M33.4095 14.016C33.2815 14.016 33.1935 13.952 33.1455 13.824L29.3055 0.432L29.2815 0.360001C29.2815 0.232001 29.3615 0.168001 29.5215 0.168001H30.8175C30.9615 0.168001 31.0495 0.240001 31.0815 0.384001L33.9135 10.944C33.9295 10.976 33.9455 10.992 33.9615 10.992C33.9935 10.992 34.0175 10.976 34.0335 10.944L36.7455 0.384001C36.7775 0.240001 36.8655 0.168001 37.0095 0.168001H38.3295C38.4735 0.168001 38.5615 0.240001 38.5935 0.384001L41.3775 10.944C41.3935 10.976 41.4095 10.992 41.4255 10.992C41.4575 10.992 41.4815 10.976 41.4975 10.944L44.3775 0.384001C44.4095 0.240001 44.4975 0.168001 44.6415 0.168001H45.8655C45.9455 0.168001 46.0015 0.192001 46.0335 0.240001C46.0815 0.288001 46.0975 0.352 46.0815 0.432L42.3375 13.824C42.3055 13.952 42.2175 14.016 42.0735 14.016H40.8495C40.7055 14.016 40.6175 13.944 40.5855 13.8L37.7295 3.312C37.7135 3.28 37.6895 3.264 37.6575 3.264C37.6415 3.264 37.6255 3.28 37.6095 3.312L34.8495 13.8C34.8175 13.944 34.7295 14.016 34.5855 14.016H33.4095Z" fill="#A7A7A9"/>
<path d="M60.7376 1.44C60.7376 1.6 60.6576 1.68 60.4976 1.68H53.1296C53.0656 1.68 53.0336 1.712 53.0336 1.776V6.216C53.0336 6.28 53.0656 6.312 53.1296 6.312H58.2416C58.4016 6.312 58.4816 6.392 58.4816 6.552V7.56C58.4816 7.72 58.4016 7.8 58.2416 7.8H53.1296C53.0656 7.8 53.0336 7.832 53.0336 7.896V12.432C53.0336 12.496 53.0656 12.528 53.1296 12.528H60.4976C60.6576 12.528 60.7376 12.608 60.7376 12.768V13.776C60.7376 13.936 60.6576 14.016 60.4976 14.016H51.5696C51.4096 14.016 51.3296 13.936 51.3296 13.776V0.432C51.3296 0.272 51.4096 0.192 51.5696 0.192H60.4976C60.6576 0.192 60.7376 0.272 60.7376 0.432V1.44Z" fill="#A7A7A9"/>
<path d="M74.5532 14.016C74.4092 14.016 74.3132 13.96 74.2652 13.848L71.3372 7.968C71.3212 7.92 71.2892 7.896 71.2412 7.896H68.1212C68.0572 7.896 68.0252 7.928 68.0252 7.992V13.776C68.0252 13.936 67.9452 14.016 67.7852 14.016H66.5612C66.4012 14.016 66.3212 13.936 66.3212 13.776V0.384001C66.3212 0.224001 66.4012 0.144001 66.5612 0.144001H71.8652C73.0812 0.144001 74.0572 0.504001 74.7932 1.224C75.5292 1.944 75.8972 2.888 75.8972 4.056C75.8972 5 75.6412 5.8 75.1292 6.456C74.6172 7.112 73.9292 7.544 73.0652 7.752C72.9852 7.784 72.9612 7.824 72.9932 7.872L76.0172 13.728C76.0332 13.76 76.0412 13.8 76.0412 13.848C76.0412 13.96 75.9772 14.016 75.8492 14.016H74.5532ZM68.1212 1.632C68.0572 1.632 68.0252 1.664 68.0252 1.728V6.432C68.0252 6.496 68.0572 6.528 68.1212 6.528H71.6972C72.4492 6.528 73.0572 6.304 73.5212 5.856C73.9852 5.408 74.2172 4.824 74.2172 4.104C74.2172 3.368 73.9852 2.776 73.5212 2.328C73.0572 1.864 72.4492 1.632 71.6972 1.632H68.1212Z" fill="#A7A7A9"/>
<path d="M90.8379 1.44C90.8379 1.6 90.7579 1.68 90.5979 1.68H83.2299C83.1659 1.68 83.1339 1.712 83.1339 1.776V6.216C83.1339 6.28 83.1659 6.312 83.2299 6.312H88.3419C88.5019 6.312 88.5819 6.392 88.5819 6.552V7.56C88.5819 7.72 88.5019 7.8 88.3419 7.8H83.2299C83.1659 7.8 83.1339 7.832 83.1339 7.896V12.432C83.1339 12.496 83.1659 12.528 83.2299 12.528H90.5979C90.7579 12.528 90.8379 12.608 90.8379 12.768V13.776C90.8379 13.936 90.7579 14.016 90.5979 14.016H81.6699C81.5099 14.016 81.4299 13.936 81.4299 13.776V0.432C81.4299 0.272 81.5099 0.192 81.6699 0.192H90.5979C90.7579 0.192 90.8379 0.272 90.8379 0.432V1.44Z" fill="#A7A7A9"/>
<path d="M96.6615 14.016C96.5015 14.016 96.4215 13.936 96.4215 13.776V0.408C96.4215 0.248001 96.5015 0.168001 96.6615 0.168001H101.534C102.91 0.168001 104.014 0.528001 104.846 1.248C105.678 1.952 106.094 2.896 106.094 4.08V10.104C106.094 11.304 105.678 12.256 104.846 12.96C104.03 13.664 102.925 14.016 101.534 14.016H96.6615ZM98.1255 12.432C98.1255 12.496 98.1575 12.528 98.2215 12.528H101.606C102.454 12.528 103.126 12.288 103.622 11.808C104.134 11.328 104.39 10.688 104.39 9.888V4.32C104.39 3.504 104.134 2.864 103.622 2.4C103.126 1.92 102.454 1.68 101.606 1.68H98.2215C98.1575 1.68 98.1255 1.712 98.1255 1.776V12.432Z" fill="#A7A7A9"/>
<path d="M126.673 6.816C126.593 6.848 126.593 6.888 126.673 6.936C127.393 7.24 127.937 7.672 128.305 8.232C128.689 8.792 128.881 9.464 128.881 10.248C128.881 11.448 128.473 12.376 127.657 13.032C126.857 13.688 125.793 14.016 124.465 14.016H119.449C119.289 14.016 119.209 13.936 119.209 13.776V0.408C119.209 0.248001 119.289 0.168001 119.449 0.168001H124.345C125.705 0.168001 126.769 0.488001 127.537 1.128C128.321 1.752 128.713 2.664 128.713 3.864C128.713 5.272 128.033 6.256 126.673 6.816ZM121.009 1.68C120.945 1.68 120.913 1.712 120.913 1.776V6.12C120.913 6.184 120.945 6.216 121.009 6.216H124.441C125.225 6.216 125.849 6.008 126.313 5.592C126.793 5.176 127.033 4.64 127.033 3.984C127.033 3.296 126.793 2.744 126.313 2.328C125.849 1.896 125.225 1.68 124.441 1.68H121.009ZM124.585 12.504C125.353 12.504 125.977 12.288 126.457 11.856C126.937 11.408 127.177 10.816 127.177 10.08C127.177 9.344 126.929 8.752 126.433 8.304C125.953 7.856 125.313 7.632 124.513 7.632H121.009C120.945 7.632 120.913 7.664 120.913 7.728V12.408C120.913 12.472 120.945 12.504 121.009 12.504H124.585Z" fill="#A7A7A9"/>
<path d="M137.869 13.992C137.709 13.992 137.63 13.912 137.63 13.752V8.184C137.63 8.12 137.622 8.08 137.605 8.064L133.382 0.456001C133.35 0.392001 133.333 0.344001 133.333 0.312C133.333 0.216001 133.406 0.168001 133.549 0.168001H134.845C134.989 0.168001 135.085 0.224 135.133 0.336L138.421 6.384C138.438 6.416 138.462 6.432 138.493 6.432C138.525 6.432 138.549 6.416 138.565 6.384L141.854 0.336C141.902 0.224 141.997 0.168001 142.141 0.168001H143.462C143.557 0.168001 143.621 0.200001 143.653 0.264001C143.685 0.312 143.678 0.376 143.63 0.456001L139.357 8.064C139.341 8.08 139.333 8.12 139.333 8.184V13.752C139.333 13.912 139.253 13.992 139.093 13.992H137.869Z" fill="#A7A7A9"/>
<path d="M187.76 14.016C187.616 14.016 187.52 13.952 187.472 13.824L186.728 11.496C186.712 11.448 186.68 11.424 186.632 11.424H180.632C180.584 11.424 180.552 11.448 180.536 11.496L179.792 13.824C179.744 13.952 179.648 14.016 179.504 14.016H178.304C178.128 14.016 178.064 13.928 178.112 13.752L182.6 0.360001C182.648 0.232001 182.744 0.168001 182.888 0.168001H184.352C184.496 0.168001 184.592 0.232001 184.64 0.360001L189.152 13.752L189.176 13.848C189.176 13.96 189.104 14.016 188.96 14.016H187.76ZM181.04 9.912C181.024 9.944 181.024 9.976 181.04 10.008C181.072 10.024 181.104 10.032 181.136 10.032H186.128C186.16 10.032 186.184 10.024 186.2 10.008C186.232 9.976 186.24 9.944 186.224 9.912L183.704 2.16C183.688 2.128 183.664 2.112 183.632 2.112C183.6 2.112 183.576 2.128 183.56 2.16L181.04 9.912Z" fill="black"/>
<path d="M198.624 14.208C197.136 14.208 195.944 13.776 195.048 12.912C194.152 12.032 193.704 10.864 193.704 9.408V4.752C193.704 3.296 194.152 2.144 195.048 1.296C195.944 0.432 197.136 0 198.624 0C200.096 0 201.28 0.424 202.176 1.272C203.072 2.104 203.52 3.224 203.52 4.632C203.52 4.712 203.496 4.776 203.448 4.824C203.4 4.872 203.344 4.896 203.28 4.896L202.056 4.944C201.896 4.944 201.816 4.872 201.816 4.728V4.704C201.816 3.696 201.504 2.912 200.88 2.352C200.272 1.792 199.456 1.512 198.432 1.512C197.52 1.512 196.784 1.808 196.224 2.4C195.68 2.992 195.408 3.76 195.408 4.704V9.504C195.408 10.48 195.704 11.256 196.296 11.832C196.888 12.408 197.664 12.696 198.624 12.696C199.584 12.696 200.352 12.408 200.928 11.832C201.52 11.256 201.816 10.48 201.816 9.504V9.48C201.816 9.336 201.896 9.264 202.056 9.264L203.28 9.336C203.44 9.336 203.52 9.4 203.52 9.528C203.52 10.952 203.072 12.088 202.176 12.936C201.296 13.784 200.112 14.208 198.624 14.208Z" fill="black"/>
<path d="M217.453 14.016C217.309 14.016 217.213 13.96 217.165 13.848L214.237 7.968C214.221 7.92 214.189 7.896 214.141 7.896H211.021C210.957 7.896 210.925 7.928 210.925 7.992V13.776C210.925 13.936 210.845 14.016 210.685 14.016H209.461C209.301 14.016 209.221 13.936 209.221 13.776V0.384001C209.221 0.224001 209.301 0.144001 209.461 0.144001H214.765C215.981 0.144001 216.957 0.504001 217.693 1.224C218.429 1.944 218.797 2.888 218.797 4.056C218.797 5 218.541 5.8 218.029 6.456C217.517 7.112 216.829 7.544 215.965 7.752C215.885 7.784 215.861 7.824 215.893 7.872L218.917 13.728C218.933 13.76 218.941 13.8 218.941 13.848C218.941 13.96 218.877 14.016 218.749 14.016H217.453ZM211.021 1.632C210.957 1.632 210.925 1.664 210.925 1.728V6.432C210.925 6.496 210.957 6.528 211.021 6.528H214.597C215.349 6.528 215.957 6.304 216.421 5.856C216.885 5.408 217.117 4.824 217.117 4.104C217.117 3.368 216.885 2.776 216.421 2.328C215.957 1.864 215.349 1.632 214.597 1.632H211.021Z" fill="black"/>
<path d="M228.962 14.184C227.426 14.184 226.194 13.728 225.266 12.816C224.354 11.904 223.898 10.68 223.898 9.144V5.064C223.898 3.528 224.354 2.304 225.266 1.392C226.194 0.464 227.426 0 228.962 0C229.97 0 230.85 0.208 231.602 0.624001C232.37 1.04 232.962 1.632 233.378 2.4C233.81 3.152 234.026 4.04 234.026 5.064V9.144C234.026 10.68 233.562 11.904 232.634 12.816C231.706 13.728 230.482 14.184 228.962 14.184ZM228.962 12.72C229.97 12.72 230.778 12.408 231.386 11.784C232.01 11.144 232.322 10.28 232.322 9.192V5.04C232.322 3.952 232.01 3.096 231.386 2.472C230.778 1.832 229.97 1.512 228.962 1.512C227.938 1.512 227.122 1.832 226.514 2.472C225.906 3.096 225.602 3.952 225.602 5.04V9.192C225.602 10.28 225.906 11.144 226.514 11.784C227.122 12.408 227.938 12.72 228.962 12.72Z" fill="black"/>
<path d="M244.179 14.184C242.627 14.184 241.403 13.856 240.507 13.2C239.627 12.528 239.187 11.6 239.187 10.416V9.912C239.187 9.752 239.267 9.672 239.427 9.672H240.603C240.763 9.672 240.843 9.752 240.843 9.912V10.272C240.843 10.992 241.147 11.576 241.755 12.024C242.363 12.472 243.219 12.696 244.323 12.696C245.315 12.696 246.075 12.496 246.603 12.096C247.131 11.696 247.395 11.152 247.395 10.464C247.395 9.872 247.131 9.376 246.603 8.976C246.075 8.576 245.163 8.12 243.867 7.608C242.763 7.224 241.923 6.896 241.347 6.624C240.787 6.352 240.323 5.984 239.955 5.52C239.587 5.04 239.403 4.424 239.403 3.672C239.403 2.504 239.811 1.6 240.627 0.960001C241.443 0.32 242.595 0 244.083 0C245.635 0 246.835 0.352 247.683 1.056C248.547 1.744 248.979 2.688 248.979 3.888V4.2C248.979 4.36 248.899 4.44 248.739 4.44H247.539C247.379 4.44 247.299 4.36 247.299 4.2V3.96C247.299 3.24 247.011 2.656 246.435 2.208C245.875 1.744 245.059 1.512 243.987 1.512C243.059 1.512 242.339 1.696 241.827 2.064C241.331 2.416 241.083 2.936 241.083 3.624C241.083 4.056 241.195 4.416 241.419 4.704C241.659 4.976 241.971 5.208 242.355 5.4C242.755 5.576 243.411 5.84 244.323 6.192C245.427 6.576 246.299 6.928 246.939 7.248C247.579 7.568 248.099 7.984 248.499 8.496C248.915 8.992 249.123 9.624 249.123 10.392C249.123 11.56 248.691 12.488 247.827 13.176C246.963 13.848 245.747 14.184 244.179 14.184Z" fill="black"/>
<path d="M258.913 14.184C257.361 14.184 256.137 13.856 255.241 13.2C254.361 12.528 253.921 11.6 253.921 10.416V9.912C253.921 9.752 254.001 9.672 254.161 9.672H255.337C255.497 9.672 255.577 9.752 255.577 9.912V10.272C255.577 10.992 255.881 11.576 256.489 12.024C257.097 12.472 257.953 12.696 259.057 12.696C260.049 12.696 260.809 12.496 261.337 12.096C261.865 11.696 262.129 11.152 262.129 10.464C262.129 9.872 261.865 9.376 261.337 8.976C260.809 8.576 259.897 8.12 258.601 7.608C257.497 7.224 256.657 6.896 256.081 6.624C255.521 6.352 255.057 5.984 254.689 5.52C254.321 5.04 254.137 4.424 254.137 3.672C254.137 2.504 254.545 1.6 255.361 0.960001C256.177 0.32 257.329 0 258.817 0C260.369 0 261.569 0.352 262.417 1.056C263.281 1.744 263.713 2.688 263.713 3.888V4.2C263.713 4.36 263.633 4.44 263.473 4.44H262.273C262.113 4.44 262.033 4.36 262.033 4.2V3.96C262.033 3.24 261.745 2.656 261.169 2.208C260.609 1.744 259.793 1.512 258.721 1.512C257.793 1.512 257.073 1.696 256.561 2.064C256.065 2.416 255.817 2.936 255.817 3.624C255.817 4.056 255.929 4.416 256.153 4.704C256.393 4.976 256.705 5.208 257.089 5.4C257.489 5.576 258.145 5.84 259.057 6.192C260.161 6.576 261.033 6.928 261.673 7.248C262.313 7.568 262.833 7.984 263.233 8.496C263.649 8.992 263.857 9.624 263.857 10.392C263.857 11.56 263.425 12.488 262.561 13.176C261.697 13.848 260.481 14.184 258.913 14.184Z" fill="black"/>
<path fill-rule="evenodd" clip-rule="evenodd" d="M167.91 0.0160012L169.32 1.426L164.608 6.13802C164.36 5.49117 163.845 4.97639 163.198 4.72802L167.91 0.0160012ZM161.442 4.72802L156.73 0.0160012L155.32 1.426L160.032 6.13802C160.28 5.49117 160.795 4.97639 161.442 4.72802ZM160.032 7.89399L155.32 12.606L156.73 14.016L161.442 9.30399C160.795 9.05561 160.28 8.54083 160.032 7.89399ZM163.198 9.30399L167.91 14.016L169.32 12.606L164.608 7.89399C164.36 8.54083 163.845 9.05561 163.198 9.30399Z" fill="black"/>
</svg>
