<svg width="351" height="31" viewBox="0 0 351 31" fill="none" xmlns="http://www.w3.org/2000/svg">
<path d="M8.8529 8.176C9.8289 8.176 10.6849 8.384 11.4209 8.8C12.1729 9.2 12.7489 9.768 13.1489 10.504C13.5649 11.24 13.7729 12.088 13.7729 13.048C13.7729 14.008 13.5649 14.848 13.1489 15.568C12.7329 16.288 12.1409 16.848 11.3729 17.248C10.6209 17.648 9.7489 17.848 8.7569 17.848H4.5329C4.4689 17.848 4.4369 17.88 4.4369 17.944V24.76C4.4369 24.92 4.3569 25 4.1969 25H2.3729C2.2129 25 2.1329 24.92 2.1329 24.76V8.416C2.1329 8.256 2.2129 8.176 2.3729 8.176H8.8529ZM8.5409 15.976C9.4209 15.976 10.1249 15.712 10.6529 15.184C11.1969 14.656 11.4689 13.96 11.4689 13.096C11.4689 12.216 11.1969 11.512 10.6529 10.984C10.1249 10.44 9.4209 10.168 8.5409 10.168H4.5329C4.4689 10.168 4.4369 10.2 4.4369 10.264V15.88C4.4369 15.944 4.4689 15.976 4.5329 15.976H8.5409ZM27.0155 25.216C25.8475 25.216 24.8155 24.976 23.9195 24.496C23.0235 24.016 22.3275 23.344 21.8315 22.48C21.3355 21.6 21.0875 20.592 21.0875 19.456V13.744C21.0875 12.608 21.3355 11.608 21.8315 10.744C22.3275 9.88 23.0235 9.208 23.9195 8.728C24.8155 8.248 25.8475 8.008 27.0155 8.008C28.1995 8.008 29.2395 8.248 30.1355 8.728C31.0315 9.208 31.7275 9.88 32.2235 10.744C32.7195 11.608 32.9675 12.608 32.9675 13.744V19.456C32.9675 20.592 32.7195 21.6 32.2235 22.48C31.7275 23.344 31.0315 24.016 30.1355 24.496C29.2395 24.976 28.1995 25.216 27.0155 25.216ZM27.0155 23.224C28.1035 23.224 28.9835 22.888 29.6555 22.216C30.3275 21.544 30.6635 20.656 30.6635 19.552V13.72C30.6635 12.6 30.3275 11.704 29.6555 11.032C28.9835 10.344 28.1035 10 27.0155 10C25.9275 10 25.0475 10.344 24.3755 11.032C23.7195 11.704 23.3915 12.6 23.3915 13.72V19.552C23.3915 20.656 23.7195 21.544 24.3755 22.216C25.0475 22.888 25.9275 23.224 27.0155 23.224ZM44.7342 25C44.5902 25 44.5022 24.936 44.4702 24.808L39.9582 8.464L39.9342 8.392C39.9342 8.264 40.0142 8.2 40.1742 8.2H42.1182C42.2622 8.2 42.3502 8.272 42.3822 8.416L45.5262 20.368C45.5422 20.4 45.5582 20.416 45.5742 20.416C45.6062 20.416 45.6302 20.4 45.6462 20.368L48.6222 8.416C48.6542 8.272 48.7422 8.2 48.8862 8.2H50.7822C50.9262 8.2 51.0142 8.272 51.0462 8.416L54.1902 20.392C54.2062 20.424 54.2222 20.44 54.2382 20.44C54.2542 20.44 54.2702 20.424 54.2862 20.392L57.4542 8.416C57.4862 8.272 57.5742 8.2 57.7182 8.2H59.5422C59.6222 8.2 59.6782 8.224 59.7102 8.272C59.7582 8.32 59.7742 8.384 59.7582 8.464L55.4142 24.784C55.3822 24.928 55.2942 25 55.1502 25H53.3022C53.1582 25 53.0702 24.928 53.0382 24.784L49.8942 12.4C49.8782 12.352 49.8622 12.328 49.8462 12.328C49.8302 12.328 49.8142 12.352 49.7982 12.4L46.7502 24.784C46.7342 24.928 46.6462 25 46.4862 25H44.7342ZM78.3147 9.952C78.3147 10.112 78.2347 10.192 78.0747 10.192H69.5547C69.4907 10.192 69.4587 10.224 69.4587 10.288V15.448C69.4587 15.512 69.4907 15.544 69.5547 15.544H75.4107C75.5707 15.544 75.6507 15.624 75.6507 15.784V17.296C75.6507 17.456 75.5707 17.536 75.4107 17.536H69.5547C69.4907 17.536 69.4587 17.568 69.4587 17.632V22.912C69.4587 22.976 69.4907 23.008 69.5547 23.008H78.0747C78.2347 23.008 78.3147 23.088 78.3147 23.248V24.76C78.3147 24.92 78.2347 25 78.0747 25H67.3947C67.2347 25 67.1547 24.92 67.1547 24.76V8.44C67.1547 8.28 67.2347 8.2 67.3947 8.2H78.0747C78.2347 8.2 78.3147 8.28 78.3147 8.44V9.952ZM96.1145 25C95.9865 25 95.8985 24.944 95.8505 24.832L92.4905 17.656C92.4745 17.608 92.4425 17.584 92.3945 17.584H88.9385C88.8745 17.584 88.8425 17.616 88.8425 17.68V24.76C88.8425 24.92 88.7625 25 88.6025 25H86.7785C86.6185 25 86.5385 24.92 86.5385 24.76V8.44C86.5385 8.28 86.6185 8.2 86.7785 8.2H93.2345C94.1945 8.2 95.0345 8.4 95.7545 8.8C96.4905 9.2 97.0585 9.76 97.4585 10.48C97.8585 11.2 98.0585 12.032 98.0585 12.976C98.0585 14.096 97.7625 15.048 97.1705 15.832C96.5945 16.6 95.7865 17.12 94.7465 17.392C94.6825 17.424 94.6665 17.464 94.6985 17.512L98.1785 24.712C98.1945 24.744 98.2025 24.784 98.2025 24.832C98.2025 24.944 98.1385 25 98.0105 25H96.1145ZM88.9385 10.192C88.8745 10.192 88.8425 10.224 88.8425 10.288V15.664C88.8425 15.728 88.8745 15.76 88.9385 15.76H92.9465C93.7945 15.76 94.4745 15.512 94.9865 15.016C95.4985 14.504 95.7545 13.832 95.7545 13C95.7545 12.152 95.4985 11.472 94.9865 10.96C94.4745 10.448 93.7945 10.192 92.9465 10.192H88.9385ZM117.457 9.952C117.457 10.112 117.377 10.192 117.217 10.192H108.697C108.633 10.192 108.601 10.224 108.601 10.288V15.448C108.601 15.512 108.633 15.544 108.697 15.544H114.553C114.713 15.544 114.793 15.624 114.793 15.784V17.296C114.793 17.456 114.713 17.536 114.553 17.536H108.697C108.633 17.536 108.601 17.568 108.601 17.632V22.912C108.601 22.976 108.633 23.008 108.697 23.008H117.217C117.377 23.008 117.457 23.088 117.457 23.248V24.76C117.457 24.92 117.377 25 117.217 25H106.537C106.377 25 106.297 24.92 106.297 24.76V8.44C106.297 8.28 106.377 8.2 106.537 8.2H117.217C117.377 8.2 117.457 8.28 117.457 8.44V9.952ZM125.921 25C125.761 25 125.681 24.92 125.681 24.76V8.44C125.681 8.28 125.761 8.2 125.921 8.2H131.729C133.393 8.2 134.721 8.64 135.713 9.52C136.705 10.384 137.201 11.544 137.201 13V20.2C137.201 21.656 136.705 22.824 135.713 23.704C134.721 24.568 133.393 25 131.729 25H125.921ZM127.985 22.912C127.985 22.976 128.017 23.008 128.081 23.008H131.825C132.753 23.008 133.489 22.728 134.033 22.168C134.593 21.592 134.881 20.824 134.897 19.864V13.336C134.897 12.376 134.617 11.616 134.057 11.056C133.513 10.48 132.769 10.192 131.825 10.192H128.081C128.017 10.192 127.985 10.224 127.985 10.288V22.912ZM164.354 16.24C164.274 16.288 164.274 16.336 164.354 16.384C166.05 17.104 166.898 18.44 166.898 20.392C166.898 21.864 166.41 23 165.434 23.8C164.458 24.6 163.186 25 161.618 25H155.642C155.482 25 155.402 24.92 155.402 24.76V8.44C155.402 8.28 155.482 8.2 155.642 8.2H161.426C163.09 8.2 164.378 8.584 165.29 9.352C166.218 10.104 166.682 11.208 166.682 12.664C166.682 14.392 165.906 15.584 164.354 16.24ZM157.802 10.192C157.738 10.192 157.706 10.224 157.706 10.288V15.352C157.706 15.416 157.738 15.448 157.802 15.448H161.426C162.354 15.448 163.082 15.216 163.61 14.752C164.154 14.288 164.426 13.656 164.426 12.856C164.426 12.04 164.154 11.392 163.61 10.912C163.082 10.432 162.354 10.192 161.426 10.192H157.802ZM161.618 22.984C162.53 22.984 163.25 22.736 163.778 22.24C164.322 21.728 164.594 21.04 164.594 20.176C164.594 19.312 164.322 18.632 163.778 18.136C163.234 17.624 162.49 17.368 161.546 17.368H157.802C157.738 17.368 157.706 17.4 157.706 17.464V22.888C157.706 22.952 157.738 22.984 157.802 22.984H161.618ZM178.937 24.976C178.777 24.976 178.697 24.896 178.697 24.736V17.992C178.697 17.928 178.689 17.888 178.673 17.872L173.681 8.488C173.665 8.456 173.657 8.416 173.657 8.368C173.657 8.256 173.721 8.2 173.849 8.2H175.817C175.961 8.2 176.057 8.256 176.105 8.368L179.777 15.4C179.793 15.432 179.817 15.448 179.849 15.448C179.881 15.448 179.905 15.432 179.921 15.4L183.593 8.368C183.641 8.256 183.737 8.2 183.881 8.2H185.873C185.953 8.2 186.009 8.232 186.041 8.296C186.089 8.344 186.089 8.408 186.041 8.488L181.025 17.872C181.009 17.888 181.001 17.928 181.001 17.992V24.736C181.001 24.896 180.921 24.976 180.761 24.976H178.937Z" fill="#A7A7A9"/>
<path d="M213.933 25C213.773 25 213.669 24.92 213.621 24.76L212.829 22.192C212.797 22.128 212.757 22.096 212.709 22.096H206.373C206.325 22.096 206.285 22.128 206.253 22.192L205.461 24.76C205.413 24.92 205.309 25 205.149 25H202.749C202.653 25 202.581 24.976 202.533 24.928C202.485 24.864 202.477 24.776 202.509 24.664L207.717 8.44C207.765 8.28 207.869 8.2 208.029 8.2H211.029C211.189 8.2 211.293 8.28 211.341 8.44L216.573 24.664C216.589 24.696 216.597 24.736 216.597 24.784C216.597 24.928 216.509 25 216.333 25H213.933ZM206.997 19.768C206.981 19.864 207.013 19.912 207.093 19.912H211.965C212.061 19.912 212.093 19.864 212.061 19.768L209.589 11.728C209.573 11.664 209.549 11.632 209.517 11.632C209.485 11.632 209.461 11.664 209.445 11.728L206.997 19.768ZM229.313 25.192C228.113 25.192 227.057 24.96 226.145 24.496C225.233 24.016 224.529 23.352 224.033 22.504C223.537 21.656 223.289 20.672 223.289 19.552V13.624C223.289 12.504 223.537 11.52 224.033 10.672C224.529 9.824 225.233 9.168 226.145 8.704C227.057 8.24 228.113 8.008 229.313 8.008C230.497 8.008 231.545 8.232 232.457 8.68C233.369 9.128 234.073 9.76 234.569 10.576C235.065 11.392 235.313 12.336 235.313 13.408C235.313 13.488 235.281 13.56 235.217 13.624C235.169 13.672 235.105 13.696 235.025 13.696L232.817 13.816C232.625 13.816 232.529 13.728 232.529 13.552C232.529 12.608 232.233 11.848 231.641 11.272C231.065 10.696 230.289 10.408 229.313 10.408C228.337 10.408 227.553 10.696 226.961 11.272C226.369 11.848 226.073 12.608 226.073 13.552V19.672C226.073 20.6 226.369 21.352 226.961 21.928C227.553 22.504 228.337 22.792 229.313 22.792C230.289 22.792 231.065 22.512 231.641 21.952C232.233 21.376 232.529 20.616 232.529 19.672C232.529 19.496 232.625 19.408 232.817 19.408L235.025 19.504C235.105 19.504 235.169 19.528 235.217 19.576C235.281 19.624 235.313 19.68 235.313 19.744C235.313 20.832 235.065 21.792 234.569 22.624C234.073 23.44 233.369 24.072 232.457 24.52C231.545 24.968 230.497 25.192 229.313 25.192ZM252.771 25C252.611 25 252.499 24.928 252.435 24.784L249.267 17.872C249.235 17.808 249.187 17.776 249.123 17.776H246.243C246.163 17.776 246.123 17.816 246.123 17.896V24.712C246.123 24.792 246.091 24.864 246.027 24.928C245.979 24.976 245.915 25 245.835 25H243.627C243.547 25 243.475 24.976 243.411 24.928C243.363 24.864 243.339 24.792 243.339 24.712V8.488C243.339 8.408 243.363 8.344 243.411 8.296C243.475 8.232 243.547 8.2 243.627 8.2H250.227C251.203 8.2 252.067 8.408 252.819 8.824C253.571 9.224 254.155 9.8 254.571 10.552C254.987 11.288 255.195 12.136 255.195 13.096C255.195 14.2 254.907 15.144 254.331 15.928C253.771 16.696 252.987 17.232 251.979 17.536C251.947 17.536 251.923 17.552 251.907 17.584C251.891 17.616 251.891 17.648 251.907 17.68L255.291 24.664C255.323 24.728 255.339 24.776 255.339 24.808C255.339 24.936 255.251 25 255.075 25H252.771ZM246.243 10.6C246.163 10.6 246.123 10.64 246.123 10.72V15.496C246.123 15.576 246.163 15.616 246.243 15.616H249.843C250.611 15.616 251.227 15.392 251.691 14.944C252.171 14.48 252.411 13.872 252.411 13.12C252.411 12.368 252.171 11.76 251.691 11.296C251.227 10.832 250.611 10.6 249.843 10.6H246.243ZM268.785 25.24C267.585 25.24 266.521 25 265.593 24.52C264.665 24.024 263.945 23.328 263.433 22.432C262.937 21.536 262.689 20.504 262.689 19.336V13.864C262.689 12.712 262.945 11.696 263.457 10.816C263.969 9.92 264.681 9.232 265.593 8.752C266.521 8.256 267.585 8.008 268.785 8.008C270.001 8.008 271.065 8.256 271.977 8.752C272.905 9.232 273.625 9.92 274.137 10.816C274.649 11.696 274.905 12.712 274.905 13.864V19.336C274.905 20.504 274.649 21.536 274.137 22.432C273.625 23.328 272.905 24.024 271.977 24.52C271.065 25 270.001 25.24 268.785 25.24ZM268.785 22.84C269.793 22.84 270.601 22.528 271.209 21.904C271.817 21.28 272.121 20.456 272.121 19.432V13.84C272.121 12.8 271.817 11.968 271.209 11.344C270.601 10.72 269.793 10.408 268.785 10.408C267.793 10.408 266.993 10.72 266.385 11.344C265.777 11.968 265.473 12.8 265.473 13.84V19.432C265.473 20.456 265.777 21.28 266.385 21.904C266.993 22.528 267.793 22.84 268.785 22.84ZM288.468 25.192C287.22 25.192 286.132 24.992 285.204 24.592C284.276 24.192 283.556 23.632 283.044 22.912C282.548 22.192 282.3 21.344 282.3 20.368V19.768C282.3 19.688 282.324 19.624 282.372 19.576C282.436 19.512 282.508 19.48 282.588 19.48H284.724C284.804 19.48 284.868 19.512 284.916 19.576C284.98 19.624 285.012 19.688 285.012 19.768V20.224C285.012 20.96 285.34 21.576 285.996 22.072C286.652 22.552 287.548 22.792 288.684 22.792C289.66 22.792 290.396 22.584 290.892 22.168C291.388 21.752 291.636 21.216 291.636 20.56C291.636 20.112 291.5 19.736 291.228 19.432C290.956 19.112 290.564 18.824 290.052 18.568C289.556 18.312 288.804 17.992 287.796 17.608C286.66 17.192 285.74 16.8 285.036 16.432C284.332 16.064 283.74 15.568 283.26 14.944C282.796 14.304 282.564 13.512 282.564 12.568C282.564 11.16 283.076 10.048 284.1 9.232C285.124 8.416 286.492 8.008 288.204 8.008C289.404 8.008 290.46 8.216 291.372 8.632C292.3 9.048 293.02 9.632 293.532 10.384C294.044 11.12 294.3 11.976 294.3 12.952V13.36C294.3 13.44 294.268 13.512 294.204 13.576C294.156 13.624 294.092 13.648 294.012 13.648H291.852C291.772 13.648 291.7 13.624 291.636 13.576C291.588 13.512 291.564 13.44 291.564 13.36V13.096C291.564 12.344 291.252 11.712 290.628 11.2C290.02 10.672 289.172 10.408 288.084 10.408C287.204 10.408 286.516 10.592 286.02 10.96C285.54 11.328 285.3 11.848 285.3 12.52C285.3 13 285.428 13.392 285.684 13.696C285.94 14 286.324 14.28 286.836 14.536C287.348 14.776 288.14 15.088 289.212 15.472C290.348 15.904 291.252 16.296 291.924 16.648C292.612 17 293.196 17.496 293.676 18.136C294.172 18.76 294.42 19.544 294.42 20.488C294.42 21.928 293.884 23.072 292.812 23.92C291.756 24.768 290.308 25.192 288.468 25.192ZM307.687 25.192C306.439 25.192 305.351 24.992 304.423 24.592C303.495 24.192 302.775 23.632 302.263 22.912C301.767 22.192 301.519 21.344 301.519 20.368V19.768C301.519 19.688 301.543 19.624 301.591 19.576C301.655 19.512 301.727 19.48 301.807 19.48H303.943C304.023 19.48 304.087 19.512 304.135 19.576C304.199 19.624 304.231 19.688 304.231 19.768V20.224C304.231 20.96 304.559 21.576 305.215 22.072C305.871 22.552 306.767 22.792 307.903 22.792C308.879 22.792 309.615 22.584 310.111 22.168C310.607 21.752 310.855 21.216 310.855 20.56C310.855 20.112 310.719 19.736 310.447 19.432C310.175 19.112 309.783 18.824 309.271 18.568C308.775 18.312 308.023 17.992 307.015 17.608C305.879 17.192 304.959 16.8 304.255 16.432C303.551 16.064 302.959 15.568 302.479 14.944C302.015 14.304 301.783 13.512 301.783 12.568C301.783 11.16 302.295 10.048 303.319 9.232C304.343 8.416 305.711 8.008 307.423 8.008C308.623 8.008 309.679 8.216 310.591 8.632C311.519 9.048 312.239 9.632 312.751 10.384C313.263 11.12 313.519 11.976 313.519 12.952V13.36C313.519 13.44 313.487 13.512 313.423 13.576C313.375 13.624 313.311 13.648 313.231 13.648H311.071C310.991 13.648 310.919 13.624 310.855 13.576C310.807 13.512 310.783 13.44 310.783 13.36V13.096C310.783 12.344 310.471 11.712 309.847 11.2C309.239 10.672 308.391 10.408 307.303 10.408C306.423 10.408 305.735 10.592 305.239 10.96C304.759 11.328 304.519 11.848 304.519 12.52C304.519 13 304.647 13.392 304.903 13.696C305.159 14 305.543 14.28 306.055 14.536C306.567 14.776 307.359 15.088 308.431 15.472C309.567 15.904 310.471 16.296 311.143 16.648C311.831 17 312.415 17.496 312.895 18.136C313.391 18.76 313.639 19.544 313.639 20.488C313.639 21.928 313.103 23.072 312.031 23.92C310.975 24.768 309.527 25.192 307.687 25.192Z" fill="white"/>
<path fill-rule="evenodd" clip-rule="evenodd" d="M328.24 6.48328L330.105 4.62891L336.406 10.8953C335.982 11.1335 335.584 11.432 335.223 11.7907C334.941 12.0716 334.695 12.3754 334.487 12.6962L328.24 6.48328ZM334.324 18.3492L328.129 24.5104L329.994 26.3648L336.136 20.2559C335.813 20.0486 335.506 19.8041 335.223 19.5224C334.863 19.1644 334.564 18.7692 334.324 18.3492ZM342.087 20.2542L348.13 26.2633L349.994 24.4089L343.898 18.3464C343.659 18.7674 343.359 19.1636 342.998 19.5224C342.715 19.8033 342.41 20.0472 342.087 20.2542ZM343.735 12.6989L349.884 6.58475L348.019 4.73037L341.818 10.8969C342.24 11.1348 342.638 11.4328 342.998 11.7907C343.281 12.0724 343.527 12.3771 343.735 12.6989Z" fill="white"/>
</svg>
